<svg xmlns="http://www.w3.org/2000/svg" xml:space="preserve" fill-rule="evenodd" stroke-linejoin="round" stroke-miterlimit="2" clip-rule="evenodd" viewBox="0 0 500 500"><path fill="#40b5ff" fill-rule="nonzero" d="M161 418c36.5-12.5 101-15 103-56 1.6-32.9-50-40.1-79-55-24.6 8.4-53.9 14-93 14H67v72h29c26.3 0 46.5 10.3 65 25Z"/><path fill="#ff7cff" fill-rule="nonzero" d="M185 307c66.8-22.8 204-65 204-65s-138.3-34.9-207-53c-24 15-51.2 25-86 25H67v72h29c36.6 0 63.8 8 89 21Z"/><path fill="#ffd13a" fill-rule="nonzero" d="M182 189c29.4-18.3 83.3-32.2 80-68-3.3-36.5-63.8-36.8-111-45-18 17.6-35.1 32-55 32H67v71h24c38 0 66.8 3.6 91 10Z"/><path fill="#ffb700" fill-rule="nonzero" d="M151 76C183.4 44.4 266 0 266 0H67v71h29a314.95 314.95 0 0 1 55 5Z"/><path fill="#f20c51" fill-rule="nonzero" d="M433 179c3.3-11.7 6-24.4 6-38 0-33.5-8.8-62-25-84-69.8 0-152 0-152 64 0 58 89.5 58 171 58Z"/><path fill="#ff7c00" fill-rule="nonzero" d="M151 76c47.2 8.2 79.6 26 111 45 38.3-34 82.2-64 152-64-27.4-37.1-77.6-57-148.4-57-48.8 0-82.2 44.4-114.6 76Z"/><path fill="#5324b3" fill-rule="nonzero" d="M445 307c-80.1 0-178.3.1-181 55-2.7 53.3 91.3 62.3 173 62.3a153 153 0 0 0 16-71.3 135.01 135.01 0 0 0-8-46Z"/><path fill="#9b54e6" fill-rule="nonzero" d="M264 362c47-28.4 100.9-55 181-55a123.83 123.83 0 0 0-57-65c-104 0-136.2 42.2-203 65 29 14.9 52.7 35.3 79 55Z"/><path fill="#ff369c" fill-rule="nonzero" d="M182 189c68.7 18.1 100.4 53 206 53a116.03 116.03 0 0 0 45-63c-81.5 0-124.8-30-171-58-26.9 23.9-50.6 49.7-80 68Z"/><path fill="#17d7e6" fill-rule="nonzero" d="M161.3 418c-18.6 6.3-38 11-60.2 11H67v71h212s-78-50.3-117.8-82h.1Z"/><path fill="#5971f2" fill-rule="nonzero" d="M161 418c39.7 31.7 68.2 82 117 82 80.5 0 134.3-28.3 159-76-81.7 0-130.3-30-173-62-35.2 21.2-66.5 43.5-103 56Z"/></svg>